<?xml version="1.0" standalone="no"?>
<!DOCTYPE svg PUBLIC "-//W3C//DTD SVG 20010904//EN"
 "http://www.w3.org/TR/2001/REC-SVG-20010904/DTD/svg10.dtd">
<svg version="1.0" xmlns="http://www.w3.org/2000/svg"
 width="1280.000000pt" height="733.000000pt" viewBox="0 0 1280.000000 733.000000"
 preserveAspectRatio="xMidYMid meet">
<metadata>
Created by potrace 1.15, written by Peter Selinger 2001-2017
</metadata>
<g transform="translate(0.000000,733.000000) scale(0.100000,-0.100000)"
fill="#FFFFFF" stroke="none">
<path d="M10196 7319 c-987 -94 -2079 -627 -2847 -1389 -704 -700 -1013 -1462
-823 -2028 13 -41 23 -75 22 -76 -2 -2 -31 -14 -66 -29 l-63 -27 -53 30 c-29
17 -75 37 -102 45 -111 32 52 104 -2204 -972 -1141 -544 -2504 -1194 -3029
-1444 l-954 -454 -28 -60 c-53 -113 -61 -249 -24 -397 23 -89 105 -252 162
-323 86 -105 203 -175 324 -191 46 -6 60 1 995 471 522 263 1012 510 1089 550
77 40 622 314 1210 610 589 296 1115 561 1170 590 55 29 434 220 842 425 l742
373 25 56 c30 69 46 126 46 168 0 29 6 35 51 59 28 14 52 24 54 22 1 -2 17
-32 35 -68 102 -203 277 -373 495 -482 381 -190 924 -232 1510 -117 566 110
1187 371 1730 727 803 525 1401 1230 1599 1885 85 279 96 527 36 762 -27 106
-116 283 -185 369 -31 38 -88 123 -127 190 -118 199 -158 257 -240 342 -187
195 -445 315 -793 370 -121 19 -461 26 -599 13z m1664 -1102 c0 -499 -318
-1107 -865 -1652 -376 -375 -806 -680 -1325 -939 -466 -232 -898 -371 -1370
-442 -145 -21 -518 -30 -661 -15 -298 31 -547 115 -745 252 -81 56 -89 73 -99
210 -6 85 0 82 11 -6 4 -33 9 -52 11 -43 4 16 37 35 198 116 28 14 58 32 68
40 9 8 17 11 17 7 0 -4 8 -1 18 8 9 8 19 16 22 16 10 0 45 15 50 21 3 3 31 19
63 35 32 17 81 42 110 56 29 15 58 32 65 38 6 7 12 9 12 5 0 -4 9 1 20 11 11
10 20 15 20 12 0 -4 17 3 38 15 63 36 165 90 217 116 28 14 58 32 68 40 9 8
17 11 17 7 0 -4 9 0 20 10 11 10 20 15 20 11 0 -4 12 1 28 12 15 10 53 32 85
48 118 59 155 79 171 93 9 7 16 10 16 6 0 -5 9 0 20 10 11 10 20 15 20 12 0
-4 17 3 38 15 75 43 138 77 192 104 30 16 58 33 62 39 4 5 8 6 8 1 0 -5 9 -1
20 9 11 10 20 14 20 10 0 -4 9 0 20 10 11 10 20 15 20 10 0 -4 6 -3 13 3 13
11 123 71 202 110 28 14 58 32 68 40 9 8 17 11 17 7 0 -4 9 0 21 11 12 10 22
18 23 16 2 -5 40 10 46 18 3 3 31 19 63 35 32 17 81 42 110 56 29 15 58 32 65
38 6 7 12 9 12 5 0 -4 9 1 20 11 11 10 20 14 20 10 0 -4 9 0 20 10 11 10 20
15 20 10 0 -4 6 -3 13 3 13 11 123 71 202 110 28 14 58 32 68 40 9 8 17 11 17
7 0 -4 8 -1 18 8 9 8 20 16 24 17 14 1 43 14 48 20 3 3 30 18 60 34 58 29 237
122 383 200 249 132 408 216 527 277 47 24 87 46 90 49 3 3 57 32 120 64 63
33 143 74 178 93 34 18 90 48 125 66 34 19 114 60 177 93 63 32 117 61 120 64
3 3 57 32 120 64 63 33 144 74 179 93 50 26 66 31 72 21 5 -8 9 9 9 40 0 52
-2 56 -62 120 l-61 67 66 -66 67 -67 0 -105z m-5063 -2369 c-3 -7 -5 -2 -5 12
0 14 2 19 5 13 2 -7 2 -19 0 -25z"/>
</g>
</svg>
